<svg width="25" height="24" viewBox="0 0 25 24" fill="none" xmlns="http://www.w3.org/2000/svg">
<path d="M7.33337 7H6.33337C5.80294 7 5.29423 7.21071 4.91916 7.58579C4.54409 7.96086 4.33337 8.46957 4.33337 9V18C4.33337 18.5304 4.54409 19.0391 4.91916 19.4142C5.29423 19.7893 5.80294 20 6.33337 20H15.3334C15.8638 20 16.3725 19.7893 16.7476 19.4142C17.1227 19.0391 17.3334 18.5304 17.3334 18V17" stroke="#0F62FE" stroke-width="2" stroke-linecap="round" stroke-linejoin="round"/>
<path d="M20.7184 6.58511C21.1122 6.19126 21.3335 5.65709 21.3335 5.10011C21.3335 4.54312 21.1122 4.00895 20.7184 3.61511C20.3245 3.22126 19.7904 3 19.2334 3C18.6764 3 18.1422 3.22126 17.7484 3.61511L9.33337 12.0001V15.0001H12.3334L20.7184 6.58511V6.58511Z" stroke="#0F62FE" stroke-width="2" stroke-linecap="round" stroke-linejoin="round"/>
<path d="M16.3334 5L19.3334 8" stroke="#0F62FE" stroke-width="2" stroke-linecap="round" stroke-linejoin="round"/>
</svg>
