<svg width="39" height="39" viewBox="0 0 39 39" fill="none" xmlns="http://www.w3.org/2000/svg">
<path d="M34.7877 18.4543L32.8011 18.1343C32.6728 18.1127 32.5549 18.0507 32.4644 17.9572C32.3739 17.8637 32.3158 17.7438 32.2984 17.6148C32.2603 17.3711 32.2222 17.1266 32.1689 16.8904C32.1431 16.7637 32.1579 16.632 32.2113 16.5141C32.2646 16.3962 32.3537 16.2982 32.466 16.2338L34.2248 15.2573C34.3579 15.1892 34.4616 15.0749 34.5163 14.9357C34.571 14.7966 34.573 14.6422 34.5218 14.5017L34.2172 13.6638C34.1662 13.5229 34.0647 13.4059 33.9324 13.3356C33.8002 13.2652 33.6465 13.2465 33.5011 13.2829L31.529 13.6638C31.4008 13.6886 31.268 13.6716 31.1502 13.6152C31.0324 13.5589 30.9359 13.4661 30.8747 13.3507C30.7605 13.1375 30.6386 12.9239 30.5091 12.7101C30.4407 12.599 30.4091 12.4691 30.4187 12.3389C30.4282 12.2088 30.4785 12.0849 30.5624 11.985L31.8794 10.4661C31.9816 10.3574 32.0403 10.2151 32.0445 10.066C32.0487 9.91689 31.9981 9.77144 31.9023 9.65716L31.3318 8.97162C31.2367 8.85632 31.102 8.78064 30.9541 8.75937C30.8062 8.7381 30.6557 8.77277 30.532 8.8566L28.8036 9.89482C28.6925 9.96066 28.5634 9.9895 28.4348 9.97718C28.3063 9.96486 28.1849 9.91201 28.0884 9.82627C27.9056 9.66554 27.7151 9.50558 27.5247 9.35248C27.4234 9.272 27.3504 9.16138 27.3161 9.03662C27.2819 8.91187 27.2882 8.77945 27.3343 8.65855L28.0503 6.7733C28.1112 6.63652 28.1196 6.4821 28.074 6.3395C28.0283 6.1969 27.9318 6.0761 27.8027 6.00015L27.0258 5.54998C26.8961 5.47634 26.7439 5.45281 26.5981 5.48384C26.4522 5.51486 26.3228 5.59828 26.2343 5.71832L24.9668 7.30574C24.896 7.40564 24.7936 7.47877 24.6762 7.51333C24.5587 7.54788 24.433 7.54183 24.3194 7.49617C24.3194 7.49617 23.8928 7.32097 23.5729 7.21357C23.4502 7.17268 23.3437 7.0938 23.2688 6.98836C23.1939 6.88292 23.1545 6.75638 23.1562 6.62705L23.1867 4.6123C23.1957 4.46245 23.1495 4.31449 23.0569 4.19634C22.9643 4.07819 22.8316 3.99801 22.684 3.97093L21.8011 3.81859C21.6534 3.79299 21.5013 3.82231 21.3737 3.90102C21.246 3.97972 21.1515 4.10239 21.108 4.24591L20.4529 6.15402C20.4109 6.27701 20.3306 6.38334 20.2239 6.45748C20.1171 6.53162 19.9894 6.56968 19.8595 6.56611H19.113C18.9833 6.56885 18.856 6.53046 18.7494 6.45643C18.6428 6.38241 18.5624 6.27655 18.5197 6.15402L17.8646 4.24591C17.8211 4.10239 17.7266 3.97972 17.5989 3.90102C17.4712 3.82231 17.3192 3.79299 17.1714 3.81859L16.2886 3.97093C16.1409 3.99801 16.0083 4.07819 15.9157 4.19634C15.823 4.31449 15.7769 4.46245 15.7858 4.6123L15.8163 6.62705C15.8182 6.75669 15.7786 6.88355 15.7034 6.98917C15.6282 7.09479 15.5212 7.17366 15.3981 7.21433C15.2229 7.28289 14.8421 7.42837 14.6593 7.49693C14.446 7.5731 14.1946 7.51216 13.9889 7.27527L12.7314 5.72593C12.6424 5.60641 12.5128 5.52359 12.367 5.49313C12.2212 5.46268 12.0692 5.48669 11.9399 5.56064L11.163 6.01082C11.0336 6.08532 10.9364 6.20503 10.89 6.34692C10.8436 6.48881 10.8513 6.64284 10.9116 6.77939L11.6276 8.66464C11.6729 8.78564 11.6789 8.91784 11.6447 9.04243C11.6105 9.16702 11.5379 9.27765 11.4372 9.35857C11.2468 9.51091 11.0563 9.67164 10.8735 9.83236C10.7769 9.9181 10.6556 9.97095 10.5271 9.98327C10.3985 9.99559 10.2694 9.96675 10.1583 9.90091L8.45506 8.8467C8.33071 8.76487 8.1807 8.73139 8.03335 8.75258C7.88601 8.77377 7.75151 8.84816 7.65526 8.96171L7.08473 9.64726C6.98888 9.76153 6.93827 9.90699 6.94248 10.0561C6.9467 10.2052 7.00544 10.3475 7.10758 10.4562L8.42459 11.9751C8.51023 12.0742 8.56166 12.1982 8.57126 12.3288C8.58086 12.4594 8.54813 12.5897 8.47791 12.7002C8.34842 12.9034 8.22655 13.1169 8.11229 13.3408C8.05017 13.4553 7.95343 13.5473 7.83592 13.6035C7.7184 13.6597 7.58612 13.6774 7.45797 13.6539L5.48588 13.273C5.34059 13.2376 5.18735 13.2568 5.05532 13.3271C4.92329 13.3973 4.82169 13.5136 4.76987 13.6539L4.46518 14.4918C4.41405 14.6323 4.41603 14.7867 4.47074 14.9258C4.52545 15.065 4.62912 15.1793 4.76225 15.2474L6.51877 16.2247C6.63218 16.2878 6.72229 16.3857 6.77579 16.5039C6.82928 16.6222 6.84333 16.7545 6.81584 16.8813C6.77014 17.1251 6.72444 17.362 6.68635 17.6057C6.66807 17.7343 6.60959 17.8537 6.51929 17.947C6.429 18.0403 6.3115 18.1027 6.18362 18.1252L4.19705 18.4451C4.04922 18.4633 3.91299 18.5345 3.81356 18.6454C3.71414 18.7563 3.65825 18.8995 3.65623 19.0484V19.9411C3.65439 20.0912 3.70894 20.2364 3.8091 20.3481C3.90926 20.4599 4.04771 20.5299 4.19705 20.5444L6.18362 20.8643C6.31189 20.8859 6.42988 20.948 6.52034 21.0415C6.6108 21.135 6.66897 21.2549 6.68635 21.3838C6.72444 21.6276 6.76252 21.8721 6.81584 22.1082C6.84162 22.235 6.82679 22.3667 6.77346 22.4845C6.72013 22.6024 6.63102 22.7005 6.51877 22.7648L4.75996 23.7429C4.62683 23.8109 4.52316 23.9253 4.46845 24.0645C4.41374 24.2036 4.41177 24.358 4.46289 24.4985L4.76758 25.3364C4.81855 25.4773 4.92001 25.5942 5.05229 25.6646C5.18458 25.735 5.33827 25.7537 5.4836 25.7172L7.45569 25.3364C7.5839 25.3116 7.7167 25.3286 7.8345 25.385C7.9523 25.4413 8.04888 25.534 8.11 25.6495C8.22426 25.8627 8.34614 26.0763 8.47563 26.2901C8.544 26.4012 8.57564 26.5311 8.56607 26.6612C8.5565 26.7914 8.5062 26.9152 8.42231 27.0152L7.1053 28.5356C7.00315 28.6443 6.94441 28.7866 6.9402 28.9357C6.93599 29.0848 6.9866 29.2303 7.08245 29.3445L7.65297 30.0301C7.74805 30.1454 7.88271 30.2211 8.03062 30.2423C8.17854 30.2636 8.32907 30.2289 8.45278 30.1451L10.1811 29.1069C10.2922 29.0411 10.4214 29.0122 10.5499 29.0245C10.6785 29.0369 10.7998 29.0897 10.8964 29.1754C11.0792 29.3362 11.2696 29.4961 11.46 29.6492C11.5613 29.7297 11.6344 29.8403 11.6686 29.9651C11.7029 30.0898 11.6965 30.2223 11.6505 30.3432L10.9345 32.2284C10.8745 32.3654 10.867 32.5196 10.9133 32.6617C10.9597 32.8039 11.0567 32.924 11.1858 32.9993L11.9628 33.4495C12.0924 33.5231 12.2446 33.5466 12.3905 33.5156C12.5363 33.4846 12.6657 33.4011 12.7542 33.2811L14.0331 31.7089C14.1931 31.5109 14.4521 31.4271 14.6577 31.5109C14.9167 31.6175 15.0919 31.6785 15.4118 31.7859C15.535 31.8265 15.6419 31.9054 15.7171 32.011C15.7923 32.1166 15.8319 32.2435 15.83 32.3731L15.7996 34.3879C15.7906 34.5377 15.8368 34.6857 15.9294 34.8039C16.022 34.922 16.1546 35.0022 16.3023 35.0293L17.1851 35.1816C17.3329 35.2072 17.4849 35.1779 17.6126 35.0992C17.7403 35.0205 17.8348 34.8978 17.8783 34.7543L18.5334 32.85C18.5754 32.727 18.6556 32.6207 18.7624 32.5465C18.8692 32.4724 18.9968 32.4343 19.1267 32.4379H19.8732C20.003 32.4351 20.1303 32.4735 20.2368 32.5476C20.3434 32.6216 20.4239 32.7274 20.4666 32.85L21.1217 34.7543C21.1652 34.8978 21.2597 35.0205 21.3874 35.0992C21.515 35.1779 21.6671 35.2072 21.8148 35.1816L22.6977 35.0293C22.8453 35.0022 22.978 34.922 23.0706 34.8039C23.1632 34.6857 23.2094 34.5377 23.2004 34.3879L23.1699 32.3731C23.1681 32.2435 23.2077 32.1166 23.2829 32.011C23.3581 31.9054 23.465 31.8265 23.5881 31.7859C23.9081 31.6785 24.1213 31.5947 24.3194 31.5185C24.5174 31.4423 24.7612 31.4423 24.9516 31.6785L26.2465 33.2735C26.3354 33.3939 26.4656 33.4774 26.6121 33.508C26.7586 33.5387 26.9113 33.5143 27.041 33.4395L27.818 32.9894C27.948 32.9149 28.0457 32.7948 28.0922 32.6524C28.1386 32.5099 28.1305 32.3553 28.0693 32.2185L27.3533 30.3333C27.3081 30.2121 27.3021 30.0798 27.3363 29.9551C27.3705 29.8305 27.443 29.7197 27.5437 29.6386C27.7342 29.4862 27.9246 29.3263 28.1074 29.1655C28.204 29.0798 28.3253 29.027 28.4539 29.0146C28.5824 29.0023 28.7116 29.0311 28.8227 29.097L30.5449 30.1383C30.6693 30.2201 30.8193 30.2536 30.9666 30.2324C31.114 30.2112 31.2485 30.1368 31.3447 30.0232L31.9152 29.3377C32.0111 29.2234 32.0617 29.078 32.0575 28.9289C32.0533 28.7798 31.9945 28.6374 31.8924 28.5287L30.5754 27.0099C30.4897 26.9108 30.4383 26.7867 30.4287 26.6561C30.4191 26.5255 30.4518 26.3953 30.5221 26.2847C30.6515 26.0791 30.7734 25.8655 30.8877 25.6441C30.9498 25.5296 31.0465 25.4377 31.1641 25.3814C31.2816 25.3252 31.4139 25.3076 31.542 25.3311L33.5141 25.7119C33.6594 25.7473 33.8126 25.7281 33.9447 25.6579C34.0767 25.5877 34.1783 25.4713 34.2301 25.3311L34.5348 24.4932C34.5859 24.3526 34.5839 24.1983 34.5292 24.0591C34.4745 23.92 34.3709 23.8056 34.2377 23.7375L32.4789 22.761C32.3655 22.6979 32.2754 22.6 32.2219 22.4818C32.1684 22.3636 32.1544 22.2312 32.1818 22.1044C32.2275 21.8607 32.2732 21.6238 32.3113 21.38C32.3296 21.2515 32.3881 21.132 32.4784 21.0387C32.5687 20.9454 32.6862 20.883 32.8141 20.8605L34.8006 20.5406C34.9485 20.5224 35.0847 20.4512 35.1841 20.3403C35.2835 20.2294 35.3394 20.0863 35.3415 19.9373V19.0431C35.3332 18.8955 35.2731 18.7555 35.1718 18.6478C35.0705 18.5401 34.9345 18.4716 34.7877 18.4543V18.4543ZM19.5 8.53134C21.9329 8.53031 24.297 9.33917 26.2193 10.8304C28.1416 12.3216 29.5129 14.4103 30.1168 16.767C30.1617 16.9468 30.1651 17.1344 30.1267 17.3156C30.0882 17.4968 30.0089 17.6669 29.8949 17.8129C29.7808 17.9589 29.635 18.0769 29.4685 18.1581C29.302 18.2393 29.1191 18.2814 28.9339 18.2813H20.9175C20.7022 18.2814 20.4908 18.2244 20.3047 18.1161C20.1185 18.0079 19.9644 17.8523 19.858 17.6651L15.8894 10.6794C15.797 10.517 15.7432 10.3355 15.7321 10.149C15.721 9.96244 15.753 9.77586 15.8255 9.60365C15.898 9.43144 16.0092 9.27821 16.1504 9.15581C16.2915 9.03341 16.459 8.9451 16.6397 8.89773C17.5734 8.65278 18.5348 8.52963 19.5 8.53134V8.53134ZM8.53123 19.5001C8.52987 18.0314 8.82346 16.5774 9.3946 15.2243C9.96575 13.8712 10.8028 12.6466 11.8561 11.6232C11.9891 11.4915 12.1507 11.3922 12.3283 11.333C12.5058 11.2739 12.6946 11.2564 12.88 11.2819C13.0654 11.3075 13.2425 11.3754 13.3974 11.4804C13.5523 11.5854 13.681 11.7247 13.7734 11.8875L17.7526 18.8907C17.8577 19.0748 17.913 19.2831 17.913 19.4951C17.913 19.7071 17.8577 19.9155 17.7526 20.0996L13.7406 27.0845C13.6475 27.2468 13.5182 27.3855 13.3629 27.4898C13.2075 27.594 13.0303 27.6612 12.8448 27.6859C12.6593 27.7107 12.4707 27.6924 12.2934 27.6325C12.1161 27.5726 11.9551 27.4726 11.8226 27.3405C10.7796 26.3186 9.95112 25.0987 9.38591 23.7523C8.82071 22.406 8.53013 20.9603 8.53123 19.5001V19.5001ZM19.5 30.4688C18.518 30.4714 17.5399 30.3446 16.591 30.0918C16.4103 30.0438 16.243 29.9548 16.1022 29.8318C15.9614 29.7088 15.8508 29.555 15.7789 29.3824C15.707 29.2098 15.6758 29.023 15.6877 28.8364C15.6996 28.6498 15.7543 28.4684 15.8475 28.3063L19.8527 21.3328C19.9598 21.1473 20.1139 20.9932 20.2995 20.8862C20.4851 20.7793 20.6957 20.7231 20.9099 20.7234H28.9377C29.1229 20.7234 29.3056 20.7657 29.472 20.8469C29.6385 20.9281 29.7842 21.0462 29.8982 21.1922C30.0121 21.3382 30.0913 21.5082 30.1297 21.6894C30.1682 21.8705 30.1648 22.058 30.1199 22.2377C29.5147 24.594 28.1426 26.6819 26.2197 28.1722C24.2969 29.6626 21.9328 30.4706 19.5 30.4688V30.4688Z" fill="#21272A"/>
</svg>
