<svg width="25" height="24" viewBox="0 0 25 24" fill="none" xmlns="http://www.w3.org/2000/svg">
<path d="M4.33337 7H20.3334" stroke="white" stroke-width="2" stroke-linecap="round" stroke-linejoin="round"/>
<path d="M10.3334 11V17" stroke="white" stroke-width="2" stroke-linecap="round" stroke-linejoin="round"/>
<path d="M14.3334 11V17" stroke="white" stroke-width="2" stroke-linecap="round" stroke-linejoin="round"/>
<path d="M5.33337 7L6.33337 19C6.33337 19.5304 6.54409 20.0391 6.91916 20.4142C7.29423 20.7893 7.80294 21 8.33337 21H16.3334C16.8638 21 17.3725 20.7893 17.7476 20.4142C18.1227 20.0391 18.3334 19.5304 18.3334 19L19.3334 7" stroke="white" stroke-width="2" stroke-linecap="round" stroke-linejoin="round"/>
<path d="M9.33337 7V4C9.33337 3.73478 9.43873 3.48043 9.62627 3.29289C9.8138 3.10536 10.0682 3 10.3334 3H14.3334C14.5986 3 14.8529 3.10536 15.0405 3.29289C15.228 3.48043 15.3334 3.73478 15.3334 4V7" stroke="white" stroke-width="2" stroke-linecap="round" stroke-linejoin="round"/>
</svg>
