<svg width="40" height="40" viewBox="0 0 40 40" fill="none" xmlns="http://www.w3.org/2000/svg">
<rect width="40" height="40" rx="20" fill="#F2F4F8"/>
<path d="M13.121 25.8037C15.1527 24.6554 17.4998 24 20 24C22.5002 24 24.8473 24.6554 26.879 25.8037M23 18C23 19.6569 21.6569 21 20 21C18.3431 21 17 19.6569 17 18C17 16.3431 18.3431 15 20 15C21.6569 15 23 16.3431 23 18ZM29 20C29 24.9706 24.9706 29 20 29C15.0294 29 11 24.9706 11 20C11 15.0294 15.0294 11 20 11C24.9706 11 29 15.0294 29 20Z" stroke="#21272A" stroke-width="2" stroke-linecap="round" stroke-linejoin="round"/>
</svg>
